<svg width="50" height="51" viewBox="0 0 50 51" fill="none" xmlns="http://www.w3.org/2000/svg">
<path d="M0.962209 30.5754C1.13258 24.4596 1.18228 18.5589 0.678259 12.6651C0.60372 11.7733 0.628563 10.8463 0.77409 9.96503C1.81407 3.72235 3.61364 1.94578 10.1624 1.78011C20.2286 1.52279 30.2664 0.331357 40.3574 0.821324C41.9014 0.895348 43.417 1.11389 44.9326 1.32539C46.6648 1.56509 47.7722 2.56617 48.2407 4.33922C49.3659 8.58326 49.3056 12.926 48.9009 17.1771C48.042 26.1939 48.1058 35.2107 48.2123 44.2381C48.2407 46.7796 46.9629 48.9509 44.9468 49.529C43.6868 49.8921 42.338 50.026 41.0176 50.0824C36.6838 50.2622 32.3463 50.4173 28.0089 50.4772C21.2969 50.5654 14.6062 51.1258 7.87296 50.9214C2.57011 50.7592 2.11579 49.6982 1.09355 44.7175C0.121002 39.9799 1.17873 35.1508 0.965762 30.5754H0.962209ZM25.4001 47.6361C30.71 47.5233 36.0023 48.3975 41.3406 47.6784C44.9114 47.1955 45.1705 47.1532 45.2273 43.5366C45.3479 35.824 45.3657 28.1115 45.8981 20.4059C46.2317 15.5697 46.4696 10.6912 45.1953 5.89725C44.851 4.60359 44.2653 3.90565 42.8349 3.73293C36.6873 2.98564 30.5397 3.34166 24.385 3.53553C19.3022 3.69768 14.2513 4.64942 9.12237 3.90918C6.22248 3.48971 4.98373 4.48727 3.95439 7.2896C3.78757 7.74079 3.64914 8.20256 3.5391 8.67138C2.74048 12.0589 3.44683 15.4393 3.56751 18.8267C3.78402 24.9425 3.64204 31.0618 3.22321 37.167C3.01734 40.1773 3.35099 43.0995 4.03958 46.0252C4.45131 47.7771 5.4203 48.5174 7.16308 48.2424C13.2184 47.2872 19.3164 47.7454 25.4001 47.6291V47.6361Z" fill="#F2EDE9"/>
<path d="M30.3764 29.5955C27.7747 32.1792 28.0409 35.401 27.9308 38.5664C26.0354 39.6451 24.0052 39.1763 22.0743 39.2256C21.4389 38.5946 21.6661 37.8579 21.6625 37.1952C21.6448 33.3742 21.6554 29.5532 21.6696 25.7321C21.6803 22.891 22.0104 22.5315 24.928 22.5843C26.1242 22.6055 27.4517 22.112 28.4881 23.2365C28.8643 23.6418 29.237 23.1483 29.5955 23.0109C30.5681 22.6407 31.5087 22.1578 32.5061 21.897C35.083 21.2272 37.525 22.7535 38.0219 25.3373C38.8276 29.5285 38.4194 33.776 38.4904 37.9989C38.494 38.2668 38.4656 38.6828 38.3023 38.7815C36.5524 39.8354 34.6322 39.1234 32.8007 39.1586C31.8459 39.1763 31.7074 38.0624 31.6471 37.2199C31.5264 35.5667 31.4057 33.91 31.3277 32.2568C31.2851 31.3509 31.2247 30.4767 30.3799 29.6025L30.3764 29.5955ZM28.158 25.4501C27.1287 23.1765 25.2652 23.7511 23.4621 23.9908C23.0291 28.6402 23.7354 33.0992 23.8987 37.6605C24.8393 37.6077 25.6556 37.5654 26.4543 37.5195C26.8625 36.6242 26.6743 35.7817 26.6743 34.971C26.6743 33.1698 26.5359 31.3791 27.3771 29.6695C28.2112 27.974 29.6772 27.7167 31.2602 27.9564C32.7119 28.1749 32.8433 29.4122 33.0527 30.6388C33.4325 32.8878 33.4573 35.1543 33.5212 37.5125C34.6712 37.5971 35.6757 37.6852 36.8044 37.4314C36.8044 36.24 36.8257 35.1367 36.8009 34.0369C36.7405 31.4743 36.9003 28.901 36.3714 26.3631C35.8603 23.9168 34.4334 23.1624 31.9488 23.6771C30.5219 23.9732 29.6488 25.2139 28.1545 25.4466L28.158 25.4501Z" fill="#F2EDE9"/>
<path d="M19.1566 23.5889C18.5958 28.397 18.6703 33.1627 19.0643 37.9284C19.0821 38.1294 19.114 38.4431 19.004 38.5277C17.6126 39.6063 15.9302 39.5887 14.2974 39.6204C13.0764 39.6451 12.7073 38.8026 12.686 37.6782C12.6079 33.5152 12.5014 29.3487 12.363 25.1857C12.3382 24.4843 12.6931 24.019 13.2397 23.9908C15.1529 23.8886 17.0234 23.0567 19.1566 23.5889ZM14.191 25.5241V37.8544C15.27 37.2023 17.1122 38.4431 17.1051 36.2294C17.0944 32.7186 16.8566 29.2077 17.4174 25.7215C16.349 25.2915 15.38 25.5277 14.191 25.5241Z" fill="#F2EDE9"/>
<path d="M15.8769 21.6608C14.2265 21.7207 12.5582 20.0217 12.5511 18.2733C12.5405 15.9821 14.1519 13.9341 16.0686 13.8037C17.7369 13.6909 19.508 15.4428 19.5542 17.2476C19.6074 19.3308 17.7262 21.5903 15.8769 21.6573V21.6608ZM15.9231 15.2102C14.8441 16.2112 13.7047 16.9691 14.3187 18.5624C14.6204 19.3379 15.2664 19.9336 15.9799 19.9371C16.9631 19.9442 17.4706 19.0876 17.7368 18.1852C18.1983 16.6307 17.1051 15.9821 15.9231 15.2102Z" fill="#F2EDE9"/>
</svg>
