<svg width="49" height="51" viewBox="0 0 49 51" fill="none" xmlns="http://www.w3.org/2000/svg">
<path d="M48.6421 24.376C48.9545 30.5623 49.1106 36.7521 48.8728 42.9419C48.7131 47.0978 47.2152 48.8603 43.1156 49.1705C33.628 49.886 24.1936 51.4582 14.6208 50.8766C11.5611 50.6897 8.51218 50.3513 5.41352 50.4888C2.37165 50.6228 0.483354 48.5184 0.494002 45.4446C0.51175 39.8118 0.685674 34.1824 0.746015 28.5531C0.809905 22.7827 0.760209 17.0089 0.88089 11.2385C0.934131 8.63009 0.934132 5.9899 2.0735 3.50482C2.69465 2.15476 3.63525 1.4392 5.04793 1.1995C8.03301 0.691911 11.0039 0.72011 14.0316 0.970382C19.0576 1.3828 24.1155 1.19598 29.1557 0.928082C34.7603 0.631987 40.3435 1.36165 45.9481 1.1854C47.2294 1.14663 47.7335 2.04197 48.0281 3.1488C48.6102 5.32721 48.5853 7.56555 48.6208 9.77922C48.6954 14.6472 48.6457 19.5151 48.6457 24.3866L48.6421 24.376ZM3.38679 46.636C3.90856 46.8511 4.08958 46.9709 4.28125 46.9921C11.3624 47.8698 18.4364 48.5959 25.6063 47.9086C31.3173 47.3622 37.0639 47.267 42.782 46.6783C44.3154 46.5197 45.0749 45.7407 45.3411 44.366C45.6854 42.5647 46.1469 40.7459 46.1753 38.9305C46.3563 28.4579 46.3953 17.9818 45.728 7.52325C45.6535 6.36355 45.6783 5.13687 45.082 3.96306C44.0066 3.96306 42.9559 3.99831 41.9088 3.95953C30.7104 3.53654 19.5154 2.94435 8.30986 3.68811C6.02048 3.83969 4.76042 4.73502 4.37353 6.75834C3.93695 9.04251 3.45423 11.3654 3.43294 13.6743C3.3371 24.6897 3.39034 35.7087 3.39034 46.636H3.38679Z" fill="#F2EDE9"/>
<path d="M23.615 38.8107C21.3753 38.8107 19.1356 38.8353 16.8924 38.8036C13.414 38.7543 11.4653 36.6605 11.4724 33.1884C11.4795 28.5989 11.4298 24.013 11.0607 19.427C10.7803 15.9232 12.6579 13.6884 16.1435 13.3359C21.6451 12.786 27.1787 12.6944 32.6661 13.4205C36.1978 13.8858 37.646 15.116 37.7631 18.6127C37.937 23.7944 39.0373 28.9796 38.0009 34.193C37.4756 36.8402 36.1304 38.0528 33.4363 38.5287C30.1602 39.1068 26.8841 38.8072 23.6115 38.8107H23.615ZM24.5698 15.2076C21.6486 15.0913 18.5074 15.2288 15.3732 15.4896C13.1051 15.68 12.2923 16.7903 12.7041 19.004C12.8815 19.9557 13.1016 20.8863 13.13 21.8698C13.2436 25.8882 13.3927 29.9067 13.5417 33.9251C13.6269 36.248 14.0812 36.6851 16.3742 36.8508C21.6061 37.228 26.8379 37.1363 32.0662 36.8226C35.2182 36.6323 36.7089 35.0707 36.6521 31.8912C36.574 27.5167 36.4108 23.1423 36.2333 18.7678C36.1517 16.8009 34.8809 15.6976 32.9678 15.4896C30.2454 15.19 27.5265 15.1618 24.5698 15.2112V15.2076Z" fill="#F2EDE9"/>
<path d="M19.732 25.7649C19.9165 22.3809 21.9468 20.132 24.6799 20.28C27.2461 20.4175 29.8443 23.3362 29.752 25.9728C29.6526 28.8245 26.8095 31.7079 24.293 31.507C21.7622 31.3061 19.5758 28.5531 19.7284 25.7649H19.732ZM28.24 25.8988C28.2471 24.1962 26.3304 22.0284 24.7935 22.0002C23.4234 21.9755 21.8013 24.2139 21.7516 26.209C21.7019 28.0843 23.1288 29.7093 24.8396 29.7269C26.4368 29.7445 28.2364 27.7212 28.2435 25.8988H28.24Z" fill="#F2EDE9"/>
<path d="M31.7788 20.3153C31.1753 20.3294 30.7423 19.9311 30.7352 19.2014C30.7246 18.2955 31.225 17.8267 32.1656 17.802C33.0246 17.7808 33.5819 18.2461 33.5286 19.0005C33.4718 19.8147 32.8471 20.3153 31.7823 20.3118L31.7788 20.3153Z" fill="#F2EDE9"/>
</svg>
