<svg width="51" height="49" viewBox="0 0 51 49" fill="none" xmlns="http://www.w3.org/2000/svg">
<path d="M5.98433 48.5971C2.25387 48.6253 0.564339 47.159 0.283933 43.5741C-0.45435 34.1907 0.4969 24.8143 0.358472 15.4309C0.312329 12.2479 0.475603 9.05782 0.628229 5.87831C0.773756 2.86801 2.02671 1.83168 5.12892 1.66953C7.71646 1.53558 10.2685 1.95858 12.8702 1.78938C22.6525 1.15841 32.4454 0.696644 42.256 0.862317C46.8419 0.939866 48.3504 2.64946 49.0674 7.16139C50.1784 14.1549 49.7099 21.1695 50.0541 28.1701C50.2636 32.4705 50.4907 36.7745 50.938 41.0537C51.4633 46.0521 48.0381 49.1118 43.8107 48.9532C37.585 48.717 12.3627 48.5478 5.98788 48.5971H5.98433ZM3.16963 32.3401C3.16963 35.1459 3.3045 38.7661 3.11284 42.3721C3.0099 44.2755 3.92211 45.0933 5.45546 45.4811C7.90458 46.1015 10.4211 46.3694 12.9412 46.1649C16.4445 45.8829 19.9372 45.9252 23.4334 46.1684C30.5571 46.6619 37.6879 46.8805 44.8294 46.7642C46.345 46.7395 47.7364 46.3271 47.8251 44.5716C48.0842 39.4323 48.2652 34.2577 47.676 29.1571C46.9839 23.1294 46.9768 17.0982 46.9768 11.0635C46.9768 9.06839 46.5225 7.25657 45.809 5.44827C45.3192 4.20396 44.5419 3.6858 43.1043 3.7422C39.4697 3.89025 35.828 3.9114 32.1898 4.00657C24.2142 4.21102 16.2316 4.13347 8.25242 4.19339C3.13768 4.23216 2.82888 4.57761 2.75434 9.64648C2.64786 16.9466 3.67365 24.2221 3.16253 32.3401H3.16963Z" fill="#F2EDE9"/>
<path d="M29.3645 21.3105C30.1454 21.3105 30.7984 21.4339 31.3841 21.2894C33.5812 20.736 34.0426 21.9133 34.0071 23.711C33.9894 24.6698 34.394 25.6427 33.8652 26.5768C32.346 27.1267 30.7381 27.1408 29.077 27.2078C28.4132 31.6633 29.5739 36.14 28.3955 40.5532C26.3581 40.6308 24.4946 41.0114 22.4928 40.7717C21.1049 40.6026 20.8849 40.1972 20.8884 39.0833C20.9062 35.2023 20.8955 31.3214 20.8955 27.3558C18.9788 27.0421 17.5697 27.0632 16.0789 27.5426C15.4223 25.6251 15.8305 23.644 15.0389 21.8428C16.4161 20.8065 17.9743 21.4445 19.3657 21.092C20.5974 20.7783 21.1511 20.4822 21.4315 19.0898C22.8797 11.9236 28.8995 9.68173 34.4544 10.0342C35.3382 10.0906 35.7215 10.5136 35.647 11.3667C35.5937 11.987 35.4056 12.618 35.4695 13.2243C35.6754 15.2547 34.7703 16.3827 32.8749 17.1017C30.2802 18.0852 29.8437 18.7232 29.3645 21.3176V21.3105ZM22.184 25.4805C22.1627 29.2875 22.2159 32.8124 22.6134 36.3233C22.8832 38.7061 24.0084 39.4217 26.1132 38.5123C27.2916 38.0047 27.2277 37.0529 27.2313 36.1012C27.2455 32.5798 27.2384 29.0584 27.2384 25.5687C28.7859 25.3607 30.0602 25.611 31.2918 25.195C31.9556 24.9729 32.7542 24.9694 32.6335 23.9683C32.5128 22.9708 31.8704 22.8827 30.9724 22.9073C29.5845 22.9461 28.0547 23.4361 26.9189 22.2411C27.5507 18.5047 28.4807 15.1207 33.0914 14.8634C33.1801 13.7989 33.8048 12.9106 33.3576 11.8919C32.6761 11.5782 32.0195 11.7332 31.3309 11.8919C27.2348 12.8295 24.5763 15.1454 23.4866 19.3048C22.6738 22.4103 22.4111 22.4561 19.2024 22.5584C19.064 22.5619 18.922 22.5584 18.7836 22.5584C17.9672 22.5443 17.1686 22.5936 17.1935 23.6969C17.2183 24.6874 17.5023 25.4946 18.7446 25.477C19.7881 25.4629 20.8316 25.477 22.1911 25.477L22.184 25.4805Z" fill="#F2EDE9"/>
</svg>
