<svg width="77" height="28" viewBox="0 0 77 28" fill="none" xmlns="http://www.w3.org/2000/svg">
<path d="M9.68233 23.6942C6.77281 23.6942 5.0947 22.3371 5.0947 19.2712C5.0947 16.6742 6.84524 14.6693 9.63405 14.6693C11.0828 14.6693 11.8736 14.9778 12.5074 15.243V17.1923C12.4591 17.1923 11.9822 17.1923 11.8856 17.1923C11.5717 16.2855 10.8776 15.6255 9.58576 15.6255C7.85937 15.6255 6.56758 16.6556 6.56758 19.1849C6.56758 21.6215 8.0646 22.6023 9.99623 22.6147C10.3101 22.6147 10.9198 22.5407 11.1371 22.5036V19.9189H12.5134V23.2624C11.7408 23.5708 10.5878 23.6942 9.68233 23.6942Z" fill="#F2EDE9"/>
<path d="M15.3565 20.3014C15.441 22.2507 16.3646 22.5776 17.6202 22.5776C18.085 22.5776 18.7731 22.516 19.3707 22.3679L19.6001 23.1637C19.0629 23.503 18.1152 23.725 17.3123 23.725C15.1935 23.725 13.9682 23.139 13.9682 20.3569C13.9682 18.3829 15.1996 16.6742 17.095 16.6742C19.0025 16.6742 19.7329 17.9326 19.7329 19.8819V20.3014H15.3565ZM16.9984 17.5007C16.0748 17.5007 15.4169 18.2595 15.3444 19.5241H18.254C18.248 18.2348 17.9099 17.5007 16.9984 17.5007Z" fill="#F2EDE9"/>
<path d="M24.2723 23.6078H20.7108C20.6625 23.3858 20.6505 23.2254 20.6625 23.0095L21.3326 22.775C21.5982 22.6887 21.7068 22.4419 21.725 22.1397L21.7732 20.215V15.0641H20.6022V14.367C21.0911 14.256 22.0268 14.1079 22.5821 14.1079C22.9081 14.1079 23.0952 14.2437 23.0952 14.62V20.215L23.1435 22.3988C23.1556 22.6085 23.1676 22.6825 23.3125 22.7195L24.3206 22.9293C24.3206 23.1452 24.3206 23.4289 24.2723 23.6078Z" fill="#F2EDE9"/>
<path d="M30.206 23.7189C29.6084 23.7189 29.5239 23.1082 29.5239 22.664C29.1617 23.0403 28.5521 23.6819 27.7251 23.6819C26.4454 23.6819 25.0389 23.176 25.0389 20.4741C25.0389 18.1978 26.4997 16.7667 28.2985 16.7667C28.8599 16.7667 29.1738 16.8037 29.5118 16.8654V15.0764H28.3347V14.3794C28.872 14.256 29.7472 14.1079 30.2905 14.1079C30.6951 14.1079 30.8518 14.219 30.8518 14.6323L30.8399 20.178L30.888 22.5776H32.005L32.1136 23.1267C31.6909 23.3672 30.9847 23.7189 30.206 23.7189ZM29.5118 17.7784C29.2221 17.7167 28.8418 17.6303 28.2563 17.6303C26.7954 17.6303 26.4574 18.8579 26.4574 20.4864C26.4574 21.9669 27.1396 22.4728 28.1356 22.4728C28.7452 22.4728 29.1436 22.2137 29.4635 22.0595L29.5118 20.1718V17.7784Z" fill="#F2EDE9"/>
<path d="M34.196 20.3014C34.2806 22.2507 35.204 22.5776 36.4597 22.5776C36.9186 22.5776 37.6128 22.516 38.2104 22.3679L38.4396 23.1637C37.9024 23.503 36.9548 23.725 36.152 23.725C34.0331 23.725 32.8078 23.139 32.8078 20.3569C32.8078 18.3829 34.0392 16.6742 35.9345 16.6742C37.842 16.6742 38.5724 17.9326 38.5724 19.8819V20.3014H34.196ZM35.8378 17.5007C34.9144 17.5007 34.2564 18.2595 34.184 19.5241H37.0934C37.0934 18.2348 36.7496 17.5007 35.8378 17.5007Z" fill="#F2EDE9"/>
<path d="M44.5002 18.1608C44.2587 18.0374 43.9507 17.9634 43.5887 17.9634C42.8583 17.9634 42.285 18.1362 42.0313 18.4138V20.2027L42.0797 22.3371C42.0797 22.553 42.1037 22.6208 42.2485 22.6455L43.6007 22.8923C43.6007 23.0773 43.6007 23.4413 43.5403 23.6017H39.7194C39.671 23.3179 39.659 23.1637 39.6709 22.991L40.2323 22.7319C40.4738 22.6209 40.6732 22.3679 40.6732 21.9115L40.7094 20.1965V17.6859H39.5443V16.9641C40.0452 16.853 40.9207 16.6927 41.5122 16.6927C41.826 16.6927 42.0132 16.8037 42.0132 17.1615V17.6859C42.327 17.1738 43.0455 16.6803 43.8602 16.6803C44.313 16.6803 44.6391 16.7667 44.8201 16.8654L44.5002 18.1608Z" fill="#F2EDE9"/>
<path d="M48.8524 23.6078H45.2849C45.2367 23.3858 45.2245 23.2254 45.2364 23.0095L45.9067 22.775C46.1721 22.6887 46.281 22.4419 46.2929 22.1397L46.3411 20.215V15.0641H45.1763V14.367C45.6592 14.256 46.6009 14.1079 47.1562 14.1079C47.482 14.1079 47.6691 14.2437 47.6691 14.62V20.215L47.7176 22.3988C47.7296 22.6085 47.7415 22.6825 47.8866 22.7195L48.8947 22.9293C48.9005 23.1452 48.9005 23.4289 48.8524 23.6078Z" fill="#F2EDE9"/>
<path d="M54.4602 23.6942C53.5969 23.6942 53.4764 23.2192 53.4521 22.627C53.1622 22.9354 52.3355 23.7065 51.2366 23.7065C50.289 23.7065 49.5708 23.1884 49.5708 22.1397C49.5708 20.7332 50.8022 20.1595 51.9793 19.9744C52.6493 19.8757 53.3312 19.8017 53.4279 19.7894V18.8579C53.4279 18.0128 53.0536 17.766 51.8827 17.766C51.4299 17.766 50.778 17.8647 50.2285 18.0251L49.9994 17.0813C50.7175 16.7975 51.4722 16.668 52.2146 16.668C53.1502 16.6556 54.7439 16.7173 54.7439 18.5309V20.2088L54.8283 22.5838H56.0177L56.102 23.0958C55.8244 23.3672 54.913 23.6942 54.4602 23.6942ZM53.4279 20.5358C53.3797 20.5481 52.6735 20.6222 52.1483 20.7332C51.3817 20.9059 50.9409 21.2575 50.9409 21.8374C50.9409 22.2075 51.1584 22.5345 51.7799 22.5345C52.4017 22.5345 53.3254 22.0595 53.4221 22.0225V20.5358H53.4279Z" fill="#F2EDE9"/>
<path d="M64.5711 23.6079H61.4926C61.4564 23.3981 61.4322 23.1698 61.4564 22.9601L61.8246 22.7381C62.066 22.59 62.1507 22.3371 62.1507 22.1273L62.1869 20.215V19.2712C62.1869 18.241 62.078 17.7537 60.9493 17.7537C60.2431 17.7537 59.4161 18.0498 59.1023 18.2287V20.2212L59.1385 22.3556C59.1385 22.5653 59.1385 22.6948 59.3075 22.7257L60.2309 22.9354C60.2309 23.1328 60.2189 23.4351 60.1704 23.6079H56.8263C56.7901 23.4228 56.7781 23.1945 56.7781 23.0095L57.3638 22.7504C57.6052 22.6517 57.7258 22.3371 57.738 22.1027L57.7742 20.215V17.692H56.6152V16.9826C57.1524 16.8592 58.0519 16.7235 58.6071 16.7235C58.9452 16.7235 59.0719 16.8469 59.0719 17.1677V17.5501C59.5489 17.1862 60.2732 16.668 61.4322 16.668C63.382 16.668 63.5146 17.6118 63.5146 18.9442V20.215L63.5511 22.5036C63.563 22.6764 63.575 22.7257 63.7198 22.7504L64.6315 22.9354C64.6315 23.1452 64.6193 23.4598 64.5711 23.6079Z" fill="#F2EDE9"/>
<path d="M70.5713 23.7189C69.9737 23.7189 69.8893 23.1082 69.8893 22.664C69.5209 23.0403 68.9174 23.6819 68.0904 23.6819C66.8105 23.6819 65.3981 23.176 65.3981 20.4741C65.3981 18.1978 66.859 16.7667 68.6576 16.7667C69.219 16.7667 69.5331 16.8037 69.877 16.8654V15.0764H68.6938V14.3794C69.2313 14.256 70.1065 14.1079 70.6498 14.1079C71.0541 14.1079 71.2112 14.219 71.2112 14.6323L71.1989 20.178L71.2474 22.5776H72.364L72.4726 23.1267C72.0502 23.3672 71.3498 23.7189 70.5713 23.7189ZM69.877 17.7784C69.5874 17.7167 69.207 17.6303 68.6275 17.6303C67.1667 17.6303 66.8286 18.8579 66.8286 20.4864C66.8286 21.9669 67.5109 22.4728 68.507 22.4728C69.1165 22.4728 69.515 22.2137 69.8347 22.0595L69.8832 20.1718V17.7784H69.877Z" fill="#F2EDE9"/>
<path d="M14.3786 9.24081C13.9923 9.24081 13.8112 9.22846 13.606 9.19147L13.6422 11.0668C13.6422 11.2025 13.6784 11.2765 13.8776 11.3135L14.602 11.4554C14.614 11.5603 14.602 11.6898 14.5537 11.807H11.8011C11.7649 11.6343 11.7649 11.5849 11.7709 11.4986L12.121 11.3629C12.3383 11.2642 12.4711 11.0359 12.4711 10.7768L12.5074 6.55122V4.44768H11.6019V4.07139C11.9641 3.99737 12.6522 3.86167 13.1472 3.86167C13.4128 3.86167 13.5275 3.96654 13.5275 4.21328L13.5396 4.44768C13.8414 4.13924 14.3424 3.86167 14.9159 3.86167C16.2982 3.86167 16.9984 4.63891 16.9984 6.42787C16.9984 8.59927 15.7006 9.24081 14.3786 9.24081ZM14.602 4.45387C14.1251 4.45387 13.7328 4.66978 13.5456 4.79313V6.56973L13.5758 8.62394C13.775 8.67328 13.9501 8.72265 14.4088 8.72265C15.441 8.72265 15.8877 7.72946 15.8877 6.61292C15.8877 5.53339 15.5376 4.45387 14.602 4.45387Z" fill="#F2EDE9"/>
<path d="M21.6041 4.87947C21.405 4.78078 21.0911 4.70058 20.8134 4.70058C20.252 4.70058 19.9562 4.86096 19.6846 5.04604V6.53887L19.7208 8.38332C19.7208 8.52522 19.7389 8.59307 19.8536 8.61156L20.8858 8.80283C20.8858 8.90151 20.8738 9.04338 20.8436 9.1606H17.9039C17.8737 9.0249 17.8556 8.98787 17.8677 8.883L18.2902 8.66712C18.4773 8.58076 18.6282 8.38332 18.6282 8.02555L18.6584 6.53887V4.43532H17.7529V4.04668C18.1393 3.97267 18.8093 3.84312 19.2802 3.84312C19.5156 3.84312 19.6544 3.92949 19.6544 4.19474V4.70058C19.9321 4.30578 20.4814 3.83077 21.1152 3.83077C21.4653 3.83077 21.7007 3.89863 21.8275 3.96651L21.6041 4.87947Z" fill="#F2EDE9"/>
<path d="M24.5862 9.22843C23.1133 9.22843 22.238 8.46969 22.238 6.6314C22.238 5.22493 23.3366 3.84312 24.6707 3.84312C26.2643 3.84312 27.055 4.63888 27.055 6.47718C27.055 7.87749 25.9926 9.22843 24.5862 9.22843ZM24.5862 4.40449C23.566 4.40449 23.3487 5.47786 23.3487 6.48953C23.3487 7.58756 23.6203 8.63007 24.7431 8.63007C25.7572 8.63007 25.9323 7.63075 25.9323 6.61908C25.9383 5.52104 25.7271 4.40449 24.5862 4.40449Z" fill="#F2EDE9"/>
<path d="M32.6388 4.18239C32.4575 4.34896 32.3066 4.62656 32.1256 5.11389L30.5139 9.17292L29.7653 9.40735L28.1899 4.94116C28.1174 4.71909 27.9665 4.41681 27.7492 4.27492C27.7492 4.17007 27.7492 4.04052 27.7854 3.94184H29.8197C29.8197 4.04668 29.8076 4.29343 29.7895 4.35512H29.1798L30.4052 8.24762L31.5642 5.08922C31.7151 4.68207 31.6185 4.44768 31.4132 4.36131L31.0933 4.24408C31.0933 4.12689 31.0813 4.04052 31.1114 3.94184H32.6508C32.6446 3.99734 32.6446 4.10222 32.6388 4.18239Z" fill="#F2EDE9"/>
<path d="M36.001 9.1606H33.2303C33.2002 9.0249 33.1941 8.98787 33.1941 8.85833L33.7735 8.65477C33.9245 8.60543 34.0392 8.37719 34.0512 8.18596L34.0812 6.54506V4.44151H33.1698V4.04056C33.5984 3.95419 34.2745 3.83696 34.7092 3.83696C34.9868 3.83696 35.1258 3.92333 35.1258 4.20709L35.1135 6.54506L35.1439 8.38951C35.1439 8.5684 35.1921 8.62394 35.2948 8.64861L36.0615 8.81515C36.0492 8.90151 36.0372 9.04341 36.001 9.1606ZM34.5644 2.76361C34.365 2.76361 33.7855 2.15906 33.7855 1.96783C33.7855 1.74576 34.3773 1.17206 34.5644 1.17206C34.7515 1.17206 35.343 1.76426 35.343 1.96783C35.3491 2.14056 34.7816 2.76361 34.5644 2.76361Z" fill="#F2EDE9"/>
<path d="M42.7013 9.1606H40.2928C40.2627 9.0249 40.2446 8.94469 40.2566 8.83982L40.6428 8.66712C40.7937 8.59927 40.8904 8.32163 40.8965 8.16741L40.9146 6.54506V5.81097C40.9146 4.95351 40.7818 4.58954 39.9004 4.58954C39.3271 4.58954 38.8862 4.74376 38.4758 4.935V6.54506L38.5061 8.32163C38.5061 8.5437 38.5242 8.62391 38.6752 8.65477L39.4418 8.82134C39.4418 8.9077 39.4295 9.05573 39.3933 9.1606H36.7253C36.7072 9.0249 36.6891 8.99404 36.7011 8.883L37.1419 8.69795C37.3109 8.61775 37.4257 8.42035 37.4315 8.14277L37.4496 6.55122V4.44768H36.5744V4.07139C36.9787 3.99118 37.6791 3.87399 38.0957 3.87399C38.361 3.87399 38.4638 3.96035 38.4638 4.19477V4.60189C38.85 4.29346 39.4538 3.82464 40.3532 3.82464C41.7656 3.82464 41.9346 4.54639 41.9346 5.56422V6.55122L41.9527 8.45121C41.965 8.60543 42.0012 8.65477 42.1218 8.67328L42.7375 8.82134C42.7497 8.90151 42.7375 9.05573 42.7013 9.1606Z" fill="#F2EDE9"/>
<path d="M47.1019 5.25579C46.8181 4.84864 46.3595 4.35512 45.8583 4.35512C44.9349 4.35512 44.4759 4.92884 44.4759 6.32915C44.4759 7.52587 44.9106 8.4882 46.1543 8.4882C46.5887 8.4882 47.0295 8.41416 47.4096 8.28464L47.5366 8.59924C47.2709 8.87065 46.7034 9.24694 45.792 9.24694C44.1139 9.24694 43.4259 8.54373 43.4259 6.5944C43.4259 5.21876 44.4339 3.79994 45.9429 3.79994C46.5163 3.79994 47.5667 3.90482 47.5667 4.50318C47.5605 4.8178 47.3976 5.08306 47.1019 5.25579Z" fill="#F2EDE9"/>
<path d="M50.9771 9.1606H48.2005C48.1762 9.0249 48.1643 8.98787 48.1643 8.85833L48.7438 8.65477C48.9067 8.60543 49.0153 8.37719 49.0275 8.18596L49.0576 6.54506V4.44151H48.14V4.04056C48.5566 3.95419 49.2447 3.83696 49.6733 3.83696C49.9389 3.83696 50.0837 3.92333 50.0837 4.20709L50.0718 6.54506L50.1018 8.38951C50.1018 8.5684 50.1561 8.62394 50.265 8.64861L51.0255 8.81515C51.0255 8.90151 51.0133 9.04341 50.9771 9.1606ZM49.5466 2.76361C49.3475 2.76361 48.7619 2.15906 48.7619 1.96783C48.7619 1.74576 49.3594 1.17206 49.5466 1.17206C49.7276 1.17206 50.3252 1.76426 50.3252 1.96783C50.3252 2.14056 49.7579 2.76361 49.5466 2.76361Z" fill="#F2EDE9"/>
<path d="M52.6554 6.56357C52.7398 8.08724 53.4764 8.45121 54.4721 8.45121C54.8283 8.45121 55.3716 8.38951 55.8305 8.28464L55.9634 8.62394C55.6011 8.9694 54.8706 9.23465 54.1402 9.23465C52.5045 9.23465 51.6112 8.67328 51.6112 6.68077C51.6112 5.12624 52.595 3.80613 54.0558 3.80613C55.4805 3.80613 56.0539 4.83632 56.0539 6.31064V6.56357H52.6554ZM53.8626 4.29962C53.2046 4.29962 52.6613 4.83012 52.6493 6.08857H54.901C54.901 5.06455 54.6896 4.29962 53.8626 4.29962Z" fill="#F2EDE9"/>
<path d="M77 0H0V0.462656H77V0Z" fill="#F2EDE9"/>
<path d="M10.5878 11.8008H0V12.2635H10.5878V11.8008Z" fill="#F2EDE9"/>
<path d="M5.77681 8.85217H0V9.31482H5.77681V8.85217Z" fill="#F2EDE9"/>
<path d="M5.77681 5.90352H0V6.36617H5.77681V5.90352Z" fill="#F2EDE9"/>
<path d="M5.77681 2.94868H0V3.41133H5.77681V2.94868Z" fill="#F2EDE9"/>
<path d="M77 11.8008H15.8817V12.2635H77V11.8008Z" fill="#F2EDE9"/>
<path d="M77 27.5373H0V28H77V27.5373Z" fill="#F2EDE9"/>
</svg>
