<svg width="23" height="23" viewBox="0 0 23 23" fill="none" xmlns="http://www.w3.org/2000/svg">
<path d="M1.02532 20.0253L0.0506412 21L2 22.9494L2.97468 21.9747L1.02532 20.0253ZM22.3784 2C22.3784 1.23873 21.7613 0.621596 21 0.621596L8.59436 0.621596C7.83308 0.621596 7.21595 1.23873 7.21595 2C7.21595 2.76127 7.83308 3.3784 8.59436 3.37841L19.6216 3.37841L19.6216 14.4056C19.6216 15.1669 20.2387 15.784 21 15.784C21.7613 15.784 22.3784 15.1669 22.3784 14.4056L22.3784 2ZM2.97468 21.9747L21.9747 2.97468L20.0253 1.02532L1.02532 20.0253L2.97468 21.9747Z" fill="white"/>
</svg>
