<svg width="23" height="23" viewBox="0 0 23 23" fill="none" xmlns="http://www.w3.org/2000/svg">
<g clip-path="url(#clip0_629_1687)">
<path d="M1.02522 20.0253L0.0505371 21L1.9999 22.9494L2.97458 21.9747L1.02522 20.0253ZM22.3783 1.99999C22.3783 1.23872 21.7612 0.621582 20.9999 0.621582H8.59426C7.83298 0.621582 7.21585 1.23872 7.21585 1.99999C7.21585 2.76126 7.83298 3.37839 8.59426 3.3784H19.6215V14.4056C19.6215 15.1669 20.2386 15.784 20.9999 15.784C21.7612 15.784 22.3783 15.1669 22.3783 14.4056V1.99999ZM2.97458 21.9747L21.9746 2.97467L20.0252 1.02531L1.02522 20.0253L2.97458 21.9747Z" fill="#2C2C2C"/>
</g>
<defs>
<clipPath id="clip0_629_1687">
<rect width="23" height="23" fill="white"/>
</clipPath>
</defs>
</svg>
