<svg width="143" height="73" viewBox="0 0 143 73" fill="none" xmlns="http://www.w3.org/2000/svg">
<mask id="path-1-outside-1_642_1686" maskUnits="userSpaceOnUse" x="-1" y="0.166016" width="145" height="72" fill="black">
<rect fill="white" x="-1" y="0.166016" width="145" height="72"/>
<path d="M14.7196 70.1075C7.93843 68.903 3.41764 38.1546 2.0049 22.931C1.12712 14.901 118.556 0.346502 128.622 2.35401C138.688 4.36152 143.456 58.5643 139.748 51.0361C136.039 43.508 23.1961 71.6131 14.7196 70.1075Z"/>
<path d="M17.9263 35.6071L21.6181 34.9839C24.5289 34.4926 26.4334 35.8261 26.8729 38.4293C27.1845 40.2752 26.3749 41.8236 24.9516 42.3316L24.9995 42.6155C26.6527 42.6042 28.0683 44.069 28.3879 45.9622L28.4398 46.2699C28.9272 49.157 27.3253 51.0582 24.7694 51.4896L20.7227 52.1727L17.9263 35.6071ZM21.315 37.2256L22.106 41.9113L22.8159 41.7915C23.7862 41.6277 24.0213 40.8578 23.8575 39.8876L23.6338 38.5623C23.47 37.592 22.9952 36.942 22.0249 37.1058L21.315 37.2256ZM22.4655 44.0412L23.3923 49.5315L24.3389 49.3717C25.3092 49.208 25.5443 48.4381 25.3805 47.4678L25.021 45.3379C24.8572 44.3677 24.3824 43.7176 23.4121 43.8814L22.4655 44.0412Z"/>
<path d="M35.3657 39.527L35.7253 41.6569L33.1694 42.0883L34.1202 47.7206L36.9127 47.2492L37.2722 49.3791L31.4506 50.3618L28.6542 33.7962L34.4759 32.8135L34.8354 34.9433L32.0429 35.4147L32.8099 39.9584L35.3657 39.527Z"/>
<path d="M39.5208 48.9995L36.7284 32.4576L39.7576 31.9462L40.9001 38.7145L41.1841 38.6665L42.3567 31.4831L45.5279 30.9478L44.0257 39.0631L48.9159 47.4136L45.6264 47.9689L41.5516 40.8437L41.2676 40.8917L42.5499 48.4882L39.5208 48.9995Z"/>
<path d="M47.9377 30.541L50.9668 30.0297L53.7632 46.5954L50.734 47.1067L47.9377 30.541Z"/>
<path d="M58.0303 28.8374L61.0595 28.326L62.969 39.638C63.5842 43.2824 62.4759 45.368 59.92 45.7994C57.3642 46.2309 55.6327 44.6247 55.0175 40.9802L54.6579 38.8504L57.6871 38.339L58.3462 42.2438C58.51 43.2141 58.8742 43.7854 59.5605 43.6696C60.2468 43.5537 60.4032 42.8945 60.2394 41.9242L58.0303 28.8374Z"/>
<path d="M66.2273 44.4913L63.435 27.9494L66.4641 27.438L67.6066 34.2063L67.8906 34.1583L69.0633 26.9749L72.2344 26.4396L70.7323 34.5549L75.6224 42.9054L72.3329 43.4607L68.2581 36.3355L67.9741 36.3835L69.2565 43.98L66.2273 44.4913Z"/>
<path d="M87.223 23.9095L87.6765 40.8706L83.7244 41.5378L78.5852 25.3676L81.7327 24.8363L84.1269 33.9732L84.9671 37.6527L85.2511 37.6048L84.8172 33.881L84.0755 24.4408L87.223 23.9095Z"/>
<path d="M89.1669 23.5814L92.196 23.07L94.9924 39.6357L91.9632 40.147L89.1669 23.5814Z"/>
<path d="M94.8105 22.6287L98.7626 21.9616C101.957 21.4223 103.734 23.8727 104.605 29.0317L104.785 30.0967C105.636 35.1374 104.777 37.9839 101.677 38.5072L97.6068 39.1943L94.8105 22.6287ZM102.265 34.4894L100.755 25.544C100.591 24.5737 100.116 23.9237 99.1458 24.0874L98.1992 24.2472L100.276 36.5531L101.223 36.3933C102.193 36.2296 102.428 35.4597 102.265 34.4894Z"/>
<path d="M112.25 26.5486L112.609 28.6785L110.054 29.1099L111.004 34.7422L113.797 34.2708L114.156 36.4007L108.335 37.3834L105.538 20.8178L111.36 19.8351L111.72 21.9649L108.927 22.4363L109.694 26.98L112.25 26.5486Z"/>
<path d="M114.732 28.2715L114.572 27.3249C113.661 21.9293 114.61 19.0431 117.521 18.5517C120.432 18.0603 122.275 20.4752 123.186 25.8708L123.346 26.8174C124.257 32.2131 123.308 35.0993 120.397 35.5906C117.486 36.082 115.642 33.6672 114.732 28.2715ZM117.028 22.5536L118.618 31.9723C118.782 32.9426 119.256 33.5926 120.037 33.4608C120.818 33.329 121.054 32.5591 120.89 31.5888L119.3 22.1701C119.136 21.1998 118.661 20.5497 117.88 20.6816C117.099 20.8134 116.864 21.5833 117.028 22.5536Z"/>
</mask>
<path d="M14.7196 70.1075C7.93843 68.903 3.41764 38.1546 2.0049 22.931C1.12712 14.901 118.556 0.346502 128.622 2.35401C138.688 4.36152 143.456 58.5643 139.748 51.0361C136.039 43.508 23.1961 71.6131 14.7196 70.1075Z" fill="#D68BE7"/>
<path d="M17.9263 35.6071L21.6181 34.9839C24.5289 34.4926 26.4334 35.8261 26.8729 38.4293C27.1845 40.2752 26.3749 41.8236 24.9516 42.3316L24.9995 42.6155C26.6527 42.6042 28.0683 44.069 28.3879 45.9622L28.4398 46.2699C28.9272 49.157 27.3253 51.0582 24.7694 51.4896L20.7227 52.1727L17.9263 35.6071ZM21.315 37.2256L22.106 41.9113L22.8159 41.7915C23.7862 41.6277 24.0213 40.8578 23.8575 39.8876L23.6338 38.5623C23.47 37.592 22.9952 36.942 22.0249 37.1058L21.315 37.2256ZM22.4655 44.0412L23.3923 49.5315L24.3389 49.3717C25.3092 49.208 25.5443 48.4381 25.3805 47.4678L25.021 45.3379C24.8572 44.3677 24.3824 43.7176 23.4121 43.8814L22.4655 44.0412Z" fill="#2C2C2C"/>
<path d="M35.3657 39.527L35.7253 41.6569L33.1694 42.0883L34.1202 47.7206L36.9127 47.2492L37.2722 49.3791L31.4506 50.3618L28.6542 33.7962L34.4759 32.8135L34.8354 34.9433L32.0429 35.4147L32.8099 39.9584L35.3657 39.527Z" fill="#2C2C2C"/>
<path d="M39.5208 48.9995L36.7284 32.4576L39.7576 31.9462L40.9001 38.7145L41.1841 38.6665L42.3567 31.4831L45.5279 30.9478L44.0257 39.0631L48.9159 47.4136L45.6264 47.9689L41.5516 40.8437L41.2676 40.8917L42.5499 48.4882L39.5208 48.9995Z" fill="#2C2C2C"/>
<path d="M47.9377 30.541L50.9668 30.0297L53.7632 46.5954L50.734 47.1067L47.9377 30.541Z" fill="#2C2C2C"/>
<path d="M58.0303 28.8374L61.0595 28.326L62.969 39.638C63.5842 43.2824 62.4759 45.368 59.92 45.7994C57.3642 46.2309 55.6327 44.6247 55.0175 40.9802L54.6579 38.8504L57.6871 38.339L58.3462 42.2438C58.51 43.2141 58.8742 43.7854 59.5605 43.6696C60.2468 43.5537 60.4032 42.8945 60.2394 41.9242L58.0303 28.8374Z" fill="#2C2C2C"/>
<path d="M66.2273 44.4913L63.435 27.9494L66.4641 27.438L67.6066 34.2063L67.8906 34.1583L69.0633 26.9749L72.2344 26.4396L70.7323 34.5549L75.6224 42.9054L72.3329 43.4607L68.2581 36.3355L67.9741 36.3835L69.2565 43.98L66.2273 44.4913Z" fill="#2C2C2C"/>
<path d="M87.223 23.9095L87.6765 40.8706L83.7244 41.5378L78.5852 25.3676L81.7327 24.8363L84.1269 33.9732L84.9671 37.6527L85.2511 37.6048L84.8172 33.881L84.0755 24.4408L87.223 23.9095Z" fill="#2C2C2C"/>
<path d="M89.1669 23.5814L92.196 23.07L94.9924 39.6357L91.9632 40.147L89.1669 23.5814Z" fill="#2C2C2C"/>
<path d="M94.8105 22.6287L98.7626 21.9616C101.957 21.4223 103.734 23.8727 104.605 29.0317L104.785 30.0967C105.636 35.1374 104.777 37.9839 101.677 38.5072L97.6068 39.1943L94.8105 22.6287ZM102.265 34.4894L100.755 25.544C100.591 24.5737 100.116 23.9237 99.1458 24.0874L98.1992 24.2472L100.276 36.5531L101.223 36.3933C102.193 36.2296 102.428 35.4597 102.265 34.4894Z" fill="#2C2C2C"/>
<path d="M112.25 26.5486L112.609 28.6785L110.054 29.1099L111.004 34.7422L113.797 34.2708L114.156 36.4007L108.335 37.3834L105.538 20.8178L111.36 19.8351L111.72 21.9649L108.927 22.4363L109.694 26.98L112.25 26.5486Z" fill="#2C2C2C"/>
<path d="M114.732 28.2715L114.572 27.3249C113.661 21.9293 114.61 19.0431 117.521 18.5517C120.432 18.0603 122.275 20.4752 123.186 25.8708L123.346 26.8174C124.257 32.2131 123.308 35.0993 120.397 35.5906C117.486 36.082 115.642 33.6672 114.732 28.2715ZM117.028 22.5536L118.618 31.9723C118.782 32.9426 119.256 33.5926 120.037 33.4608C120.818 33.329 121.054 32.5591 120.89 31.5888L119.3 22.1701C119.136 21.1998 118.661 20.5497 117.88 20.6816C117.099 20.8134 116.864 21.5833 117.028 22.5536Z" fill="#2C2C2C"/>
<path d="M14.7196 70.1075C7.93843 68.903 3.41764 38.1546 2.0049 22.931C1.12712 14.901 118.556 0.346502 128.622 2.35401C138.688 4.36152 143.456 58.5643 139.748 51.0361C136.039 43.508 23.1961 71.6131 14.7196 70.1075Z" stroke="#2C2C2C" stroke-width="4" mask="url(#path-1-outside-1_642_1686)"/>
<path d="M17.9263 35.6071L21.6181 34.9839C24.5289 34.4926 26.4334 35.8261 26.8729 38.4293C27.1845 40.2752 26.3749 41.8236 24.9516 42.3316L24.9995 42.6155C26.6527 42.6042 28.0683 44.069 28.3879 45.9622L28.4398 46.2699C28.9272 49.157 27.3253 51.0582 24.7694 51.4896L20.7227 52.1727L17.9263 35.6071ZM21.315 37.2256L22.106 41.9113L22.8159 41.7915C23.7862 41.6277 24.0213 40.8578 23.8575 39.8876L23.6338 38.5623C23.47 37.592 22.9952 36.942 22.0249 37.1058L21.315 37.2256ZM22.4655 44.0412L23.3923 49.5315L24.3389 49.3717C25.3092 49.208 25.5443 48.4381 25.3805 47.4678L25.021 45.3379C24.8572 44.3677 24.3824 43.7176 23.4121 43.8814L22.4655 44.0412Z" stroke="#2C2C2C" stroke-width="4" mask="url(#path-1-outside-1_642_1686)"/>
<path d="M35.3657 39.527L35.7253 41.6569L33.1694 42.0883L34.1202 47.7206L36.9127 47.2492L37.2722 49.3791L31.4506 50.3618L28.6542 33.7962L34.4759 32.8135L34.8354 34.9433L32.0429 35.4147L32.8099 39.9584L35.3657 39.527Z" stroke="#2C2C2C" stroke-width="4" mask="url(#path-1-outside-1_642_1686)"/>
<path d="M39.5208 48.9995L36.7284 32.4576L39.7576 31.9462L40.9001 38.7145L41.1841 38.6665L42.3567 31.4831L45.5279 30.9478L44.0257 39.0631L48.9159 47.4136L45.6264 47.9689L41.5516 40.8437L41.2676 40.8917L42.5499 48.4882L39.5208 48.9995Z" stroke="#2C2C2C" stroke-width="4" mask="url(#path-1-outside-1_642_1686)"/>
<path d="M47.9377 30.541L50.9668 30.0297L53.7632 46.5954L50.734 47.1067L47.9377 30.541Z" stroke="#2C2C2C" stroke-width="4" mask="url(#path-1-outside-1_642_1686)"/>
<path d="M58.0303 28.8374L61.0595 28.326L62.969 39.638C63.5842 43.2824 62.4759 45.368 59.92 45.7994C57.3642 46.2309 55.6327 44.6247 55.0175 40.9802L54.6579 38.8504L57.6871 38.339L58.3462 42.2438C58.51 43.2141 58.8742 43.7854 59.5605 43.6696C60.2468 43.5537 60.4032 42.8945 60.2394 41.9242L58.0303 28.8374Z" stroke="#2C2C2C" stroke-width="4" mask="url(#path-1-outside-1_642_1686)"/>
<path d="M66.2273 44.4913L63.435 27.9494L66.4641 27.438L67.6066 34.2063L67.8906 34.1583L69.0633 26.9749L72.2344 26.4396L70.7323 34.5549L75.6224 42.9054L72.3329 43.4607L68.2581 36.3355L67.9741 36.3835L69.2565 43.98L66.2273 44.4913Z" stroke="#2C2C2C" stroke-width="4" mask="url(#path-1-outside-1_642_1686)"/>
<path d="M87.223 23.9095L87.6765 40.8706L83.7244 41.5378L78.5852 25.3676L81.7327 24.8363L84.1269 33.9732L84.9671 37.6527L85.2511 37.6048L84.8172 33.881L84.0755 24.4408L87.223 23.9095Z" stroke="#2C2C2C" stroke-width="4" mask="url(#path-1-outside-1_642_1686)"/>
<path d="M89.1669 23.5814L92.196 23.07L94.9924 39.6357L91.9632 40.147L89.1669 23.5814Z" stroke="#2C2C2C" stroke-width="4" mask="url(#path-1-outside-1_642_1686)"/>
<path d="M94.8105 22.6287L98.7626 21.9616C101.957 21.4223 103.734 23.8727 104.605 29.0317L104.785 30.0967C105.636 35.1374 104.777 37.9839 101.677 38.5072L97.6068 39.1943L94.8105 22.6287ZM102.265 34.4894L100.755 25.544C100.591 24.5737 100.116 23.9237 99.1458 24.0874L98.1992 24.2472L100.276 36.5531L101.223 36.3933C102.193 36.2296 102.428 35.4597 102.265 34.4894Z" stroke="#2C2C2C" stroke-width="4" mask="url(#path-1-outside-1_642_1686)"/>
<path d="M112.25 26.5486L112.609 28.6785L110.054 29.1099L111.004 34.7422L113.797 34.2708L114.156 36.4007L108.335 37.3834L105.538 20.8178L111.36 19.8351L111.72 21.9649L108.927 22.4363L109.694 26.98L112.25 26.5486Z" stroke="#2C2C2C" stroke-width="4" mask="url(#path-1-outside-1_642_1686)"/>
<path d="M114.732 28.2715L114.572 27.3249C113.661 21.9293 114.61 19.0431 117.521 18.5517C120.432 18.0603 122.275 20.4752 123.186 25.8708L123.346 26.8174C124.257 32.2131 123.308 35.0993 120.397 35.5906C117.486 36.082 115.642 33.6672 114.732 28.2715ZM117.028 22.5536L118.618 31.9723C118.782 32.9426 119.256 33.5926 120.037 33.4608C120.818 33.329 121.054 32.5591 120.89 31.5888L119.3 22.1701C119.136 21.1998 118.661 20.5497 117.88 20.6816C117.099 20.8134 116.864 21.5833 117.028 22.5536Z" stroke="#2C2C2C" stroke-width="4" mask="url(#path-1-outside-1_642_1686)"/>
</svg>
