<svg width="31" height="21" viewBox="0 0 31 21" fill="none" xmlns="http://www.w3.org/2000/svg">
<path d="M2.06497 9.12146L0.686553 9.12148L0.686523 11.8783L2.06494 11.8783L2.06497 9.12146ZM29.9097 11.4746C30.448 10.9363 30.448 10.0635 29.9097 9.52521L21.1376 0.753094C20.5993 0.214788 19.7265 0.214791 19.1882 0.75309C18.6499 1.29139 18.6499 2.16414 19.1882 2.70246L26.9857 10.4999L19.1883 18.2973C18.6499 18.8356 18.6499 19.7083 19.1883 20.2466C19.7266 20.785 20.5993 20.785 21.1376 20.2466L29.9097 11.4746ZM2.06494 11.8783L28.935 11.8783L28.935 9.12146L2.06497 9.12146L2.06494 11.8783Z" fill="white"/>
</svg>
