<svg width="31" height="21" viewBox="0 0 31 21" fill="none" xmlns="http://www.w3.org/2000/svg">
<path d="M2.06497 8.7721L0.686553 8.77212L0.686523 11.529L2.06494 11.5289L2.06497 8.7721ZM29.9097 11.1252C30.448 10.5869 30.448 9.71416 29.9097 9.17584L21.1376 0.403729C20.5993 -0.134577 19.7265 -0.134574 19.1882 0.403725C18.6499 0.942024 18.6499 1.81478 19.1882 2.35309L26.9857 10.1505L19.1883 17.9479C18.6499 18.4862 18.6499 19.359 19.1883 19.8973C19.7266 20.4356 20.5993 20.4356 21.1376 19.8973L29.9097 11.1252ZM2.06494 11.5289L28.935 11.5289L28.935 8.7721L2.06497 8.7721L2.06494 11.5289Z" fill="#2C2C2C"/>
</svg>
